<svg viewBox="0 0 18 22" fill="none" xmlns="http://www.w3.org/2000/svg">
<path d="M16.753 14.3678C17.3244 13.7679 17.3012 12.8185 16.7013 12.2471C16.1014 11.6758 15.152 11.699 14.5806 12.2989L16.753 14.3678ZM7.91396 19.2989C7.34263 19.8988 7.36578 20.8482 7.96568 21.4195C8.56557 21.9909 9.51504 21.9677 10.0864 21.3678L7.91396 19.2989ZM7.91396 21.3678C8.48528 21.9677 9.43475 21.9909 10.0346 21.4195C10.6345 20.8482 10.6577 19.8988 10.0864 19.2989L7.91396 21.3678ZM3.4197 12.2989C2.84837 11.699 1.89891 11.6758 1.29901 12.2471C0.699118 12.8185 0.67596 13.7679 1.24729 14.3678L3.4197 12.2989ZM7.50016 20.3333C7.50016 21.1618 8.17174 21.8333 9.00016 21.8333C9.82859 21.8333 10.5002 21.1618 10.5002 20.3333H7.50016ZM10.5002 1.66668C10.5002 0.838249 9.82859 0.166676 9.00016 0.166676C8.17174 0.166676 7.50016 0.838249 7.50016 1.66668H10.5002ZM14.5806 12.2989L7.91396 19.2989L10.0864 21.3678L16.753 14.3678L14.5806 12.2989ZM10.0864 19.2989L3.4197 12.2989L1.24729 14.3678L7.91396 21.3678L10.0864 19.2989ZM10.5002 20.3333L10.5002 1.66668H7.50016L7.50016 20.3333H10.5002Z" fill="#2C2C2E"/>
</svg>
