<svg viewBox="0 0 51 38" fill="none" xmlns="http://www.w3.org/2000/svg">
<path d="M50.8757 1.49222C50.8757 0.709035 50.6437 0.22168 49.4951 0.22168C40.3354 0.22168 30.9494 2.33324 26.2531 4.35093V7.87051C30.2695 6.07659 36.1012 4.64107 42.197 3.96313C42.3829 5.14197 42.9002 6.24276 43.6879 7.13568C44.8988 8.52285 46.6622 8.92108 47.5789 9.03201C47.5789 13.6733 47.5873 19.1897 47.5921 23.5626C46.7433 23.6489 45.1751 24.0206 43.7115 25.5063C42.1583 27.0841 41.9848 29.17 41.9839 30.012C30.8608 31.8287 25.1687 35.188 24.3925 34.3556C23.2703 35.4573 22.1067 36.6207 22.7536 37.4371C24.5152 39.6615 29.6311 33.9687 49.6252 32.4554C50.5617 32.3843 50.9012 32.0762 50.9012 31.2228C50.9012 31.219 50.8757 8.38726 50.8757 1.49222Z" fill="#22D081"/>
<path d="M25.8928 1.10443C24.9215 0.0434365 18.8851 -1.59878 0.877001 5.6651C0.405485 5.85473 0 6.35346 0 6.90909C0 6.90909 0.0179121 27.1808 0.0179121 35.4848C0.0179121 36.5999 0.763842 36.8521 1.75497 36.5373C7.47162 34.7197 15.0121 31.6116 20.8551 31.2551C24.2255 31.0493 25.6297 31.3091 25.9767 31.8335C25.9822 31.8419 25.9903 31.8483 25.9998 31.8518C26.0092 31.8552 26.0195 31.8554 26.0291 31.8524C26.0387 31.8494 26.0471 31.8433 26.053 31.8351C26.0588 31.8269 26.0618 31.817 26.0616 31.8069V29.317C26.0616 28.0911 23.8266 27.7763 20.4232 28.0617C16.7332 28.3698 12.2688 29.5721 9.12194 30.5458C8.99383 29.874 8.71622 29.2399 8.30991 28.6912C7.9036 28.1424 7.37912 27.6932 6.77569 27.3771C5.71896 26.7998 4.50959 26.5678 3.31569 26.7134C3.31569 21.9953 3.3091 16.8098 3.30627 12.9261C4.25402 12.5469 5.94675 11.6935 6.92939 10.1992C7.65238 9.0789 8.08278 7.7934 8.1808 6.46155C12.7969 4.8639 18.2099 3.33261 22.0669 3.33261C25.3468 3.33261 25.9183 3.92711 26.253 4.3481C26.253 3.24823 26.3945 1.65247 25.8928 1.10443Z" fill="#22D081"/>
<path d="M26.2662 10.8335C26.2662 10.8335 26.221 9.74784 26.22 8.43842C26.22 7.18021 25.1223 6.74406 24.2472 6.69191C20.1224 6.44444 19.0766 11.4469 19.1954 15.4691C19.3029 19.1109 20.427 21.1163 22.4309 22.6068C24.4594 24.1154 26.0908 23.371 26.203 28.1062C29.7516 28.0853 32.6873 23.6782 32.6458 18.6966C32.6128 14.1985 29.862 10.8278 26.2662 10.8335Z" fill="#22D081"/>
</svg>
